<svg xmlns="http://www.w3.org/2000/svg" xmlns:xlink="http://www.w3.org/1999/xlink" width="500" zoomAndPan="magnify" viewBox="0 0 375 149.999998" height="200" preserveAspectRatio="xMidYMid meet" version="1.0"><defs><g/><clipPath id="4b838c9d78"><path d="M 248.894531 28.648438 L 363 28.648438 L 363 125.042969 L 248.894531 125.042969 Z M 248.894531 28.648438 " clip-rule="nonzero"/></clipPath></defs><g clip-path="url(#4b838c9d78)"><path fill="#ffffff" d="M 362.59375 83.476562 C 362.5625 83.402344 362.523438 83.335938 362.480469 83.265625 C 362.390625 83.09375 362.28125 82.945312 362.140625 82.804688 C 362.117188 82.78125 362.105469 82.746094 362.078125 82.722656 C 362.046875 82.695312 362.003906 82.691406 361.96875 82.664062 C 361.882812 82.597656 361.816406 82.507812 361.714844 82.453125 L 337.722656 69.585938 C 336.621094 68.992188 335.324219 68.761719 334.101562 68.929688 L 328.558594 69.683594 L 328.558594 44.210938 C 328.558594 44.132812 328.519531 44.0625 328.511719 43.988281 C 328.492188 43.824219 328.46875 43.667969 328.410156 43.515625 C 328.371094 43.414062 328.3125 43.324219 328.257812 43.230469 C 328.179688 43.097656 328.09375 42.972656 327.984375 42.863281 C 327.945312 42.820312 327.929688 42.769531 327.886719 42.730469 C 327.835938 42.6875 327.765625 42.671875 327.707031 42.632812 C 327.640625 42.585938 327.597656 42.519531 327.523438 42.480469 L 303.542969 29.585938 C 302.441406 28.988281 301.144531 28.761719 299.925781 28.925781 L 263.714844 33.8125 C 263.441406 33.851562 263.191406 33.941406 262.972656 34.074219 C 262.96875 34.074219 262.96875 34.074219 262.964844 34.074219 C 262.957031 34.082031 262.953125 34.09375 262.941406 34.097656 C 262.691406 34.253906 262.5 34.46875 262.34375 34.714844 C 262.292969 34.789062 262.261719 34.867188 262.226562 34.953125 C 262.132812 35.148438 262.082031 35.355469 262.058594 35.578125 C 262.054688 35.640625 262.011719 35.695312 262.011719 35.757812 L 262.011719 67.175781 C 262.011719 69.089844 262.960938 70.820312 264.472656 71.929688 L 250.597656 73.796875 C 249.984375 73.878906 249.5 74.25 249.203125 74.742188 C 249.179688 74.785156 249.160156 74.828125 249.140625 74.875 C 249.019531 75.109375 248.953125 75.359375 248.9375 75.632812 C 248.9375 75.675781 248.90625 75.710938 248.90625 75.75 L 248.90625 107.171875 C 248.90625 109.363281 250.105469 111.371094 252.039062 112.414062 L 275.066406 124.792969 C 275.097656 124.808594 275.132812 124.804688 275.164062 124.816406 C 275.425781 124.941406 275.703125 125.027344 275.996094 125.027344 C 276.082031 125.027344 276.171875 125.019531 276.253906 125.007812 L 310.296875 120.417969 C 311.144531 120.300781 311.902344 119.972656 312.59375 119.542969 L 322.355469 124.796875 C 322.394531 124.820312 322.441406 124.8125 322.484375 124.828125 C 322.714844 124.933594 322.957031 125 323.210938 125.011719 C 323.238281 125.011719 323.261719 125.03125 323.289062 125.03125 C 323.292969 125.03125 323.296875 125.027344 323.304688 125.027344 C 323.386719 125.027344 323.472656 125.019531 323.554688 125.007812 L 357.59375 120.417969 C 360.535156 120.019531 362.75 117.484375 362.75 114.519531 L 362.75 84.203125 C 362.75 84.128906 362.714844 84.0625 362.703125 83.988281 C 362.6875 83.8125 362.660156 83.644531 362.59375 83.476562 Z M 334.636719 72.820312 C 335.03125 72.765625 335.484375 72.839844 335.863281 73.042969 L 354.546875 83.0625 L 323.65625 87.234375 L 313.472656 81.765625 L 323.40625 80.421875 C 326.34375 80.023438 328.558594 77.488281 328.558594 74.523438 L 328.558594 73.648438 Z M 276.363281 87.234375 L 257.121094 76.882812 L 270.195312 75.132812 L 288.175781 84.800781 C 288.207031 84.816406 288.242188 84.808594 288.273438 84.824219 C 288.535156 84.949219 288.8125 85.035156 289.101562 85.035156 C 289.191406 85.035156 289.28125 85.027344 289.363281 85.015625 L 306.554688 82.699219 L 307.242188 83.066406 Z M 265.9375 39.042969 L 287.140625 50.441406 L 287.140625 79.789062 L 267.003906 68.957031 C 266.34375 68.605469 265.9375 67.921875 265.9375 67.175781 Z M 291.066406 80.828125 L 291.066406 50.984375 L 324.632812 46.453125 L 324.632812 74.523438 C 324.632812 75.535156 323.878906 76.394531 322.878906 76.53125 Z M 300.449219 32.816406 C 300.851562 32.761719 301.304688 32.835938 301.683594 33.039062 L 320.339844 43.074219 L 289.46875 47.238281 L 270.230469 36.894531 Z M 252.832031 107.171875 L 252.832031 79.035156 L 274.03125 90.4375 L 274.03125 119.78125 L 253.898438 108.953125 C 253.238281 108.601562 252.832031 107.917969 252.832031 107.171875 Z M 311.527344 114.519531 C 311.527344 115.527344 310.773438 116.390625 309.777344 116.523438 L 277.957031 120.820312 L 277.957031 90.980469 L 311.527344 86.445312 Z M 321.324219 119.78125 L 315.101562 116.433594 C 315.308594 115.824219 315.453125 115.1875 315.453125 114.519531 L 315.453125 87.28125 L 321.324219 90.4375 Z M 358.824219 114.519531 C 358.824219 115.527344 358.070312 116.390625 357.074219 116.523438 L 325.257812 120.820312 L 325.257812 90.980469 L 358.824219 86.449219 Z M 358.824219 114.519531 " fill-opacity="1" fill-rule="nonzero"/></g><g fill="#ffffff" fill-opacity="1"><g transform="translate(11.480135, 68.610147)"><g><path d="M 11.984375 0.15625 C 11.117188 0.0507812 9.445312 0 6.96875 0 L 4.796875 0 L 4.796875 -36.1875 C 5.953125 -36.113281 7.226562 -36.078125 8.625 -36.078125 C 10.019531 -36.078125 11.003906 -36.148438 11.578125 -36.296875 L 20.703125 -20.8125 L 29.46875 -36.296875 C 30.039062 -36.148438 31.140625 -36.078125 32.765625 -36.078125 C 34.398438 -36.078125 35.796875 -36.113281 36.953125 -36.1875 L 36.953125 0 L 34.78125 0 C 32.300781 0 30.628906 0.0507812 29.765625 0.15625 L 29.765625 -24.140625 L 20.890625 -8.28125 L 11.984375 -22.875 Z M 11.984375 0.15625 "/></g></g></g><g fill="#ffffff" fill-opacity="1"><g transform="translate(51.726215, 68.610147)"><g><path d="M 20.96875 -2.46875 C 18.65625 -0.550781 16.132812 0.40625 13.40625 0.40625 C 10.46875 0.40625 8.171875 -0.578125 6.515625 -2.546875 C 4.921875 -4.460938 4.125 -7.09375 4.125 -10.4375 L 4.125 -21.21875 C 4.125 -24.832031 4.046875 -26.90625 3.890625 -27.4375 C 3.734375 -27.976562 3.617188 -28.316406 3.546875 -28.453125 C 4.378906 -28.378906 5.25 -28.34375 6.15625 -28.34375 L 8.40625 -28.34375 C 9.007812 -28.34375 9.796875 -28.375 10.765625 -28.4375 L 10.765625 -12.71875 C 10.765625 -9 11.78125 -6.835938 13.8125 -6.234375 C 14.425781 -6.054688 15.09375 -5.96875 15.8125 -5.96875 C 17.945312 -5.96875 19.664062 -6.742188 20.96875 -8.296875 L 20.96875 -28.34375 L 27.703125 -28.34375 L 27.703125 -3.46875 C 27.703125 -1.875 27.773438 -0.71875 27.921875 0 L 20.96875 0 Z M 20.96875 -2.46875 "/></g></g></g><g fill="#ffffff" fill-opacity="1"><g transform="translate(82.58687, 68.610147)"><g><path d="M 10.28125 -3.03125 C 10.28125 -1.476562 10.316406 -0.46875 10.390625 0 L 3.5 0 L 3.5 -40.421875 L 10.28125 -40.421875 Z M 10.28125 -3.03125 "/></g></g></g><g fill="#ffffff" fill-opacity="1"><g transform="translate(95.002189, 68.610147)"><g><path d="M 16.578125 -5.96875 C 18.910156 -5.96875 20.507812 -6.570312 21.375 -7.78125 L 21.59375 -7.78125 L 21.671875 -1.484375 C 20.785156 -0.597656 19.140625 -0.015625 16.734375 0.265625 C 16.085938 0.359375 15.28125 0.40625 14.3125 0.40625 C 13.34375 0.40625 12.289062 0.226562 11.15625 -0.125 C 10.03125 -0.488281 9.070312 -1.082031 8.28125 -1.90625 C 6.632812 -3.582031 5.8125 -6.210938 5.8125 -9.796875 L 5.8125 -22.109375 L 1.703125 -22.109375 C 1.691406 -22.628906 1.6875 -23.164062 1.6875 -23.71875 L 1.6875 -27.890625 C 1.6875 -28.191406 1.691406 -28.34375 1.703125 -28.34375 L 5.8125 -28.34375 L 5.8125 -36.078125 L 12.453125 -36.078125 L 12.453125 -28.34375 L 19.90625 -28.34375 L 19.90625 -22.109375 L 12.453125 -22.109375 L 12.453125 -11.046875 C 12.453125 -8.203125 13.238281 -6.582031 14.8125 -6.1875 C 15.320312 -6.039062 15.910156 -5.96875 16.578125 -5.96875 Z M 16.578125 -5.96875 "/></g></g></g><g fill="#ffffff" fill-opacity="1"><g transform="translate(116.694421, 68.610147)"><g><path d="M 3.125 -36.4375 C 4.570312 -38.695312 6.082031 -40.6875 7.65625 -42.40625 L 13.484375 -37.8125 C 12.703125 -36.851562 11.976562 -35.914062 11.3125 -35 C 11.3125 -35 10.613281 -34.015625 9.21875 -32.046875 Z M 10.25 -3.03125 C 10.25 -1.476562 10.285156 -0.46875 10.359375 0 L 3.46875 0 L 3.46875 -28.34375 L 10.25 -28.34375 Z M 10.25 -3.03125 "/></g></g></g><g fill="#ffffff" fill-opacity="1"><g transform="translate(129.109731, 68.610147)"><g><path d="M 7.296875 0.21875 C 5.742188 0.0703125 3.925781 0 1.84375 0 L -0.296875 0 L 11.5 -33.078125 C 12.03125 -34.554688 12.296875 -35.414062 12.296875 -35.65625 C 12.296875 -35.90625 12.285156 -36.054688 12.265625 -36.109375 L 12.296875 -36.171875 C 13.460938 -36.109375 14.707031 -36.078125 16.03125 -36.078125 C 17.113281 -36.078125 18.414062 -36.097656 19.9375 -36.140625 L 19.96875 -36.078125 C 19.925781 -36.003906 19.90625 -35.90625 19.90625 -35.78125 C 19.90625 -35.4375 20.179688 -34.523438 20.734375 -33.046875 L 32.765625 0.078125 C 32.410156 0.0546875 31.988281 0.046875 31.5 0.046875 C 31.5 0.046875 31.03125 0.03125 30.09375 0 C 29.632812 0 29.222656 0 28.859375 0 L 24.65625 0 L 22.109375 -7.8125 L 9.84375 -7.8125 Z M 20 -14.328125 L 15.890625 -26.9375 L 11.90625 -14.328125 Z M 20 -14.328125 "/></g></g></g><g fill="#ffffff" fill-opacity="1"><g transform="translate(160.078885, 68.610147)"><g><path d="M 11.046875 -0.5625 L 11.046875 7.40625 C 11.046875 8.957031 11.082031 9.96875 11.15625 10.4375 L 4.390625 10.4375 L 4.390625 -28.34375 L 11.046875 -28.34375 L 11.046875 -26.59375 C 13.234375 -28.125 15.328125 -28.890625 17.328125 -28.890625 C 19.335938 -28.890625 21.117188 -28.609375 22.671875 -28.046875 C 24.234375 -27.492188 25.601562 -26.628906 26.78125 -25.453125 C 29.363281 -22.898438 30.65625 -19.265625 30.65625 -14.546875 C 30.65625 -11.410156 29.921875 -8.613281 28.453125 -6.15625 C 27.210938 -4.070312 25.488281 -2.410156 23.28125 -1.171875 C 21.320312 -0.0664062 19.203125 0.484375 16.921875 0.484375 C 14.648438 0.484375 12.691406 0.132812 11.046875 -0.5625 Z M 11.046875 -7.40625 C 12.421875 -6.25 14.203125 -5.671875 16.390625 -5.671875 C 19.972656 -5.671875 22.285156 -7.398438 23.328125 -10.859375 C 23.691406 -12.023438 23.875 -13.28125 23.875 -14.625 C 23.875 -15.976562 23.742188 -17.054688 23.484375 -17.859375 C 23.234375 -18.671875 22.90625 -19.367188 22.5 -19.953125 C 22.09375 -20.546875 21.632812 -21.035156 21.125 -21.421875 C 20.625 -21.804688 20.113281 -22.117188 19.59375 -22.359375 C 18.664062 -22.773438 17.710938 -22.984375 16.734375 -22.984375 C 15.765625 -22.984375 14.753906 -22.753906 13.703125 -22.296875 C 12.648438 -21.847656 11.765625 -21.242188 11.046875 -20.484375 Z M 11.046875 -7.40625 "/></g></g></g><g fill="#ffffff" fill-opacity="1"><g transform="translate(190.939538, 68.610147)"><g><path d="M 11.046875 -0.5625 L 11.046875 7.40625 C 11.046875 8.957031 11.082031 9.96875 11.15625 10.4375 L 4.390625 10.4375 L 4.390625 -28.34375 L 11.046875 -28.34375 L 11.046875 -26.59375 C 13.234375 -28.125 15.328125 -28.890625 17.328125 -28.890625 C 19.335938 -28.890625 21.117188 -28.609375 22.671875 -28.046875 C 24.234375 -27.492188 25.601562 -26.628906 26.78125 -25.453125 C 29.363281 -22.898438 30.65625 -19.265625 30.65625 -14.546875 C 30.65625 -11.410156 29.921875 -8.613281 28.453125 -6.15625 C 27.210938 -4.070312 25.488281 -2.410156 23.28125 -1.171875 C 21.320312 -0.0664062 19.203125 0.484375 16.921875 0.484375 C 14.648438 0.484375 12.691406 0.132812 11.046875 -0.5625 Z M 11.046875 -7.40625 C 12.421875 -6.25 14.203125 -5.671875 16.390625 -5.671875 C 19.972656 -5.671875 22.285156 -7.398438 23.328125 -10.859375 C 23.691406 -12.023438 23.875 -13.28125 23.875 -14.625 C 23.875 -15.976562 23.742188 -17.054688 23.484375 -17.859375 C 23.234375 -18.671875 22.90625 -19.367188 22.5 -19.953125 C 22.09375 -20.546875 21.632812 -21.035156 21.125 -21.421875 C 20.625 -21.804688 20.113281 -22.117188 19.59375 -22.359375 C 18.664062 -22.773438 17.710938 -22.984375 16.734375 -22.984375 C 15.765625 -22.984375 14.753906 -22.753906 13.703125 -22.296875 C 12.648438 -21.847656 11.765625 -21.242188 11.046875 -20.484375 Z M 11.046875 -7.40625 "/></g></g></g><g fill="#ffffff" fill-opacity="1"><g transform="translate(221.80019, 68.610147)"><g><path d="M 13.53125 0.40625 C 8.4375 0.40625 4.59375 -0.523438 2 -2.390625 C 2.039062 -2.929688 2.097656 -3.546875 2.171875 -4.234375 L 2.421875 -6.1875 C 2.554688 -7.46875 2.640625 -8.265625 2.671875 -8.578125 C 2.710938 -8.898438 2.742188 -9.070312 2.765625 -9.09375 C 2.785156 -9.125 2.929688 -8.976562 3.203125 -8.65625 C 3.472656 -8.34375 3.988281 -7.960938 4.75 -7.515625 C 5.507812 -7.066406 6.382812 -6.671875 7.375 -6.328125 C 9.53125 -5.578125 11.773438 -5.203125 14.109375 -5.203125 C 17.234375 -5.203125 18.796875 -6.242188 18.796875 -8.328125 C 18.796875 -8.992188 18.5 -9.492188 17.90625 -9.828125 C 16.84375 -10.367188 15.273438 -10.773438 13.203125 -11.046875 C 11.128906 -11.328125 9.429688 -11.738281 8.109375 -12.28125 C 6.785156 -12.832031 5.710938 -13.488281 4.890625 -14.25 C 3.347656 -15.675781 2.578125 -17.546875 2.578125 -19.859375 C 2.578125 -22.679688 3.660156 -24.894531 5.828125 -26.5 C 7.984375 -28.09375 10.960938 -28.890625 14.765625 -28.890625 C 18.523438 -28.890625 21.734375 -27.820312 24.390625 -25.6875 C 24.265625 -25.21875 24.128906 -24.765625 23.984375 -24.328125 C 23.566406 -23.140625 23.257812 -22.285156 23.0625 -21.765625 L 22.4375 -20.15625 C 22.394531 -20.007812 22.367188 -19.9375 22.359375 -19.9375 C 22.316406 -19.9375 22.171875 -20.128906 21.921875 -20.515625 C 20.785156 -21.828125 19.015625 -22.691406 16.609375 -23.109375 C 15.859375 -23.253906 15.097656 -23.328125 14.328125 -23.328125 C 11.035156 -23.328125 9.390625 -22.332031 9.390625 -20.34375 C 9.390625 -19.65625 9.734375 -19.132812 10.421875 -18.78125 C 11.703125 -18.09375 13.457031 -17.582031 15.6875 -17.25 C 17.925781 -16.925781 19.625 -16.488281 20.78125 -15.9375 C 21.9375 -15.382812 22.867188 -14.71875 23.578125 -13.9375 C 24.878906 -12.53125 25.53125 -10.660156 25.53125 -8.328125 C 25.53125 -5.773438 24.507812 -3.703125 22.46875 -2.109375 C 20.332031 -0.429688 17.351562 0.40625 13.53125 0.40625 Z M 13.53125 0.40625 "/></g></g></g><g fill="#ffffff" fill-opacity="1"><g transform="translate(33.593592, 116.808368)"><g><path d="M 37.90625 -20.21875 C 37.90625 -13.6875 36.046875 -8.679688 32.328125 -5.203125 C 28.609375 -1.734375 23.238281 0 16.21875 0 L 4.984375 0 L 4.984375 -39.671875 L 17.4375 -39.671875 C 23.914062 -39.671875 28.945312 -37.957031 32.53125 -34.53125 C 36.113281 -31.113281 37.90625 -26.34375 37.90625 -20.21875 Z M 29.171875 -20 C 29.171875 -28.507812 25.40625 -32.765625 17.875 -32.765625 L 13.40625 -32.765625 L 13.40625 -6.953125 L 17.015625 -6.953125 C 25.117188 -6.953125 29.171875 -11.300781 29.171875 -20 Z M 29.171875 -20 "/></g></g></g><g fill="#ffffff" fill-opacity="1"><g transform="translate(74.715855, 116.808368)"><g><path d="M 1.90625 13.34375 C -0.21875 13.34375 -2.035156 13.117188 -3.546875 12.671875 L -3.546875 6.15625 C -2.285156 6.5 -0.992188 6.671875 0.328125 6.671875 C 1.722656 6.671875 2.738281 6.28125 3.375 5.5 C 4.019531 4.726562 4.34375 3.582031 4.34375 2.0625 L 4.34375 -30.328125 L 12.609375 -30.328125 L 12.609375 3.28125 C 12.609375 6.5 11.675781 8.976562 9.8125 10.71875 C 7.957031 12.46875 5.320312 13.34375 1.90625 13.34375 Z M 3.984375 -38.171875 C 3.984375 -40.867188 5.484375 -42.21875 8.484375 -42.21875 C 11.492188 -42.21875 13 -40.867188 13 -38.171875 C 13 -36.890625 12.625 -35.890625 11.875 -35.171875 C 11.125 -34.460938 9.992188 -34.109375 8.484375 -34.109375 C 5.484375 -34.109375 3.984375 -35.460938 3.984375 -38.171875 Z M 3.984375 -38.171875 "/></g></g></g><g fill="#ffffff" fill-opacity="1"><g transform="translate(91.669302, 116.808368)"><g><path d="M 23.609375 0 L 22 -4.125 L 21.78125 -4.125 C 20.394531 -2.363281 18.960938 -1.144531 17.484375 -0.46875 C 16.015625 0.207031 14.09375 0.546875 11.71875 0.546875 C 8.8125 0.546875 6.519531 -0.285156 4.84375 -1.953125 C 3.164062 -3.617188 2.328125 -5.988281 2.328125 -9.0625 C 2.328125 -12.28125 3.453125 -14.648438 5.703125 -16.171875 C 7.960938 -17.703125 11.359375 -18.550781 15.890625 -18.71875 L 21.15625 -18.875 L 21.15625 -20.21875 C 21.15625 -23.289062 19.582031 -24.828125 16.4375 -24.828125 C 14.019531 -24.828125 11.171875 -24.09375 7.890625 -22.625 L 5.15625 -28.21875 C 8.644531 -30.039062 12.515625 -30.953125 16.765625 -30.953125 C 20.835938 -30.953125 23.957031 -30.066406 26.125 -28.296875 C 28.289062 -26.523438 29.375 -23.832031 29.375 -20.21875 L 29.375 0 Z M 21.15625 -14.046875 L 17.953125 -13.9375 C 15.554688 -13.875 13.769531 -13.441406 12.59375 -12.640625 C 11.414062 -11.847656 10.828125 -10.632812 10.828125 -9 C 10.828125 -6.664062 12.164062 -5.5 14.84375 -5.5 C 16.757812 -5.5 18.289062 -6.050781 19.4375 -7.15625 C 20.582031 -8.257812 21.15625 -9.726562 21.15625 -11.5625 Z M 21.15625 -14.046875 "/></g></g></g><g fill="#ffffff" fill-opacity="1"><g transform="translate(125.223556, 116.808368)"><g><path d="M 32.34375 0 L 24.0625 0 L 24.0625 -17.71875 C 24.0625 -19.90625 23.671875 -21.546875 22.890625 -22.640625 C 22.117188 -23.734375 20.882812 -24.28125 19.1875 -24.28125 C 16.863281 -24.28125 15.1875 -23.503906 14.15625 -21.953125 C 13.125 -20.410156 12.609375 -17.847656 12.609375 -14.265625 L 12.609375 0 L 4.34375 0 L 4.34375 -30.328125 L 10.65625 -30.328125 L 11.78125 -26.453125 L 12.234375 -26.453125 C 13.160156 -27.921875 14.429688 -29.03125 16.046875 -29.78125 C 17.660156 -30.53125 19.5 -30.90625 21.5625 -30.90625 C 25.09375 -30.90625 27.769531 -29.945312 29.59375 -28.03125 C 31.425781 -26.125 32.34375 -23.375 32.34375 -19.78125 Z M 32.34375 0 "/></g></g></g><g fill="#ffffff" fill-opacity="1"><g transform="translate(161.734483, 116.808368)"><g><path d="M 30.734375 -30.328125 L 30.734375 -26.125 L 25.984375 -24.90625 C 26.859375 -23.550781 27.296875 -22.03125 27.296875 -20.34375 C 27.296875 -17.09375 26.160156 -14.554688 23.890625 -12.734375 C 21.617188 -10.921875 18.46875 -10.015625 14.4375 -10.015625 L 12.9375 -10.09375 L 11.71875 -10.234375 C 10.863281 -9.578125 10.4375 -8.851562 10.4375 -8.0625 C 10.4375 -6.863281 11.957031 -6.265625 15 -6.265625 L 20.15625 -6.265625 C 23.488281 -6.265625 26.023438 -5.550781 27.765625 -4.125 C 29.515625 -2.695312 30.390625 -0.597656 30.390625 2.171875 C 30.390625 5.710938 28.910156 8.457031 25.953125 10.40625 C 22.992188 12.363281 18.75 13.34375 13.21875 13.34375 C 8.976562 13.34375 5.738281 12.601562 3.5 11.125 C 1.269531 9.65625 0.15625 7.59375 0.15625 4.9375 C 0.15625 3.113281 0.722656 1.585938 1.859375 0.359375 C 3.003906 -0.867188 4.679688 -1.75 6.890625 -2.28125 C 6.035156 -2.644531 5.289062 -3.238281 4.65625 -4.0625 C 4.03125 -4.882812 3.71875 -5.753906 3.71875 -6.671875 C 3.71875 -7.828125 4.050781 -8.789062 4.71875 -9.5625 C 5.382812 -10.332031 6.351562 -11.085938 7.625 -11.828125 C 6.03125 -12.515625 4.765625 -13.617188 3.828125 -15.140625 C 2.898438 -16.660156 2.4375 -18.453125 2.4375 -20.515625 C 2.4375 -23.816406 3.515625 -26.375 5.671875 -28.1875 C 7.828125 -30 10.898438 -30.90625 14.890625 -30.90625 C 15.742188 -30.90625 16.753906 -30.828125 17.921875 -30.671875 C 19.085938 -30.515625 19.832031 -30.398438 20.15625 -30.328125 Z M 7.328125 4.28125 C 7.328125 5.425781 7.875 6.320312 8.96875 6.96875 C 10.0625 7.625 11.59375 7.953125 13.5625 7.953125 C 16.53125 7.953125 18.851562 7.539062 20.53125 6.71875 C 22.21875 5.90625 23.0625 4.796875 23.0625 3.390625 C 23.0625 2.253906 22.5625 1.46875 21.5625 1.03125 C 20.570312 0.59375 19.035156 0.375 16.953125 0.375 L 12.671875 0.375 C 11.148438 0.375 9.878906 0.726562 8.859375 1.4375 C 7.835938 2.15625 7.328125 3.101562 7.328125 4.28125 Z M 10.34375 -20.40625 C 10.34375 -18.757812 10.71875 -17.457031 11.46875 -16.5 C 12.21875 -15.539062 13.359375 -15.0625 14.890625 -15.0625 C 16.453125 -15.0625 17.59375 -15.539062 18.3125 -16.5 C 19.03125 -17.457031 19.390625 -18.757812 19.390625 -20.40625 C 19.390625 -24.050781 17.890625 -25.875 14.890625 -25.875 C 11.859375 -25.875 10.34375 -24.050781 10.34375 -20.40625 Z M 10.34375 -20.40625 "/></g></g></g><g fill="#ffffff" fill-opacity="1"><g transform="translate(193.118698, 116.808368)"><g><path d="M 10.9375 -15.21875 C 10.9375 -12.21875 11.425781 -9.945312 12.40625 -8.40625 C 13.394531 -6.875 15.003906 -6.109375 17.234375 -6.109375 C 19.429688 -6.109375 21.015625 -6.867188 21.984375 -8.390625 C 22.953125 -9.921875 23.4375 -12.195312 23.4375 -15.21875 C 23.4375 -18.21875 22.945312 -20.46875 21.96875 -21.96875 C 21 -23.476562 19.398438 -24.234375 17.171875 -24.234375 C 14.960938 -24.234375 13.367188 -23.484375 12.390625 -21.984375 C 11.421875 -20.492188 10.9375 -18.238281 10.9375 -15.21875 Z M 31.90625 -15.21875 C 31.90625 -10.28125 30.601562 -6.414062 28 -3.625 C 25.394531 -0.84375 21.769531 0.546875 17.125 0.546875 C 14.207031 0.546875 11.632812 -0.0859375 9.40625 -1.359375 C 7.1875 -2.640625 5.476562 -4.472656 4.28125 -6.859375 C 3.09375 -9.242188 2.5 -12.03125 2.5 -15.21875 C 2.5 -20.175781 3.789062 -24.03125 6.375 -26.78125 C 8.957031 -29.53125 12.59375 -30.90625 17.28125 -30.90625 C 20.195312 -30.90625 22.765625 -30.269531 24.984375 -29 C 27.210938 -27.738281 28.921875 -25.921875 30.109375 -23.546875 C 31.304688 -21.179688 31.90625 -18.40625 31.90625 -15.21875 Z M 31.90625 -15.21875 "/></g></g></g></svg>